PathFileType	4	(X/Y/Z)	C:\Users\T490\OneDrive\Desktop\110_Internship_Tasks\Sprint GSG Position Analysis\results\sports2d_output\sprint_video_Sports2D\sprint_video_Sports2D_m_person00.trc
DataRate	CameraRate	NumFrames	NumMarkers	Units	OrigDataRate	OrigDataStartFrame	OrigNumFrames
25.0	25.0	8	22	m	25.0	261	523
Frame#	Time	Hip			RHip			RKnee			RAnkle			RBigToe			RSmallToe			RHeel			LHip			LKnee			LAnkle			LBigToe			LSmallToe			LHeel			Neck			Head			Nose			RShoulder			RElbow			RWrist			LShoulder			LElbow			LWrist			
		X1	Y1	Z1	X2	Y2	Z2	X3	Y3	Z3	X4	Y4	Z4	X5	Y5	Z5	X6	Y6	Z6	X7	Y7	Z7	X8	Y8	Z8	X9	Y9	Z9	X10	Y10	Z10	X11	Y11	Z11	X12	Y12	Z12	X13	Y13	Z13	X14	Y14	Z14	X15	Y15	Z15	X16	Y16	Z16	X17	Y17	Z17	X18	Y18	Z18	X19	Y19	Z19	X20	Y20	Z20	X21	Y21	Z21	X22	Y22	Z22
261	10.458709677419355	3.9536752817367455	0.3452199477735277	0.0301	3.9421620459478306	0.3559109220266588	0.0301	3.5979642558046723	0.34930668274949983	0.129	3.900341477377586	0.12217601650212247	0.023	3.748359517983924	0.03924393259875223	0.2179	3.9298063123323383	0.0303978506734573	0.1804	4.083900202255783	0.19783678518581824	-0.0119	3.964002112626833	0.3375102150377336	0.0301	3.7502188676567547	-0.005805396521855271	0.129	4.119626681371311	0.1332890706583231	0.023	4.182124262666297	0.0035197910904695433	0.2179	4.192918485729272	0.01950654976784023	0.1804	4.159125044429234	0.17343752506281856	-0.0119	3.5692605649590687	0.657355172573322	0.0008	3.3680520377486647	0.7987203005593766	0.0655	3.4057846380356085	0.6873715025709596	0.1076	3.618209246330013	0.6529280786972509	-0.01275	3.6030853400563316	0.3466631238369551	0.0702	3.509358598040504	0.11577324610262348	0.1076	3.5954262089827043	0.6135399628811715	-0.01275	3.587642516616536	0.3307002523259184	0.0702	3.5096306325209894	0.0789047282876223	0.1076
262	10.498781362007168	3.945252303098557	0.34829930414330557	0.0301	3.9260185005670136	0.35413736620900754	0.0301	3.5868716469718214	0.33964643244393766	0.129	3.89130662496235	0.12915900616540305	0.023	3.7318109454365382	0.04782501161658016	0.2179	4.0312285283325	0.04722239872343753	0.1804	4.1131051770917155	0.19851556295903583	-0.0119	3.9550835460435203	0.34260946223346567	0.0301	3.750198964150161	-0.005205485792705872	0.129	4.117136140670818	0.1343384954699534	0.023	4.187056453694191	0.004139045181855694	0.2179	4.192760869234504	0.019954877153572796	0.1804	4.159554202414747	0.1776421253379892	-0.0119	3.568191961068333	0.6716336219565251	0.0008	3.376080982308551	0.8207699524423342	0.0655	3.4055816191496278	0.7073628709482856	0.1076	3.6042671677686093	0.6504724568154959	-0.01275	3.592712782537481	0.3405680340524928	0.0702	3.507100174129317	0.09885211053027018	0.1076	3.6005692724854055	0.6361116413256969	-0.01275	3.6267798682669987	0.34881362255172216	0.0702	3.549417731488687	0.11608939317298402	0.1076
263	10.538853046594982	3.932501058750561	0.35206392469340503	0.0301	3.896003371960621	0.35401277983421714	0.0301	3.5720146111119435	0.3067701536373658	0.129	3.8862802602810906	0.13922193285209425	0.023	3.723722720376748	0.056177424528443945	0.2179	4.12579412945744	0.055473757249134115	0.1804	4.126595385094282	0.21120759685172324	-0.0119	3.9451560208503946	0.3479213992690848	0.0301	3.7510442802582427	-0.006887143813094005	0.129	4.115772379976805	0.1392399498582162	0.023	4.186341773363393	0.004434076579700721	0.2179	4.1916574357329495	0.01893939990658575	0.1804	4.160248045876098	0.18526524855584267	-0.0119	3.5675594910973443	0.6844662804442384	0.0008	3.3876900850053135	0.8395686553211799	0.0655	3.4095056220409066	0.7224943514755449	0.1076	3.5877951054248385	0.6456723564922903	-0.01275	3.574049971634181	0.3408522078222539	0.0702	3.50586826889275	0.08806683869794159	0.1076	3.6072604134671273	0.6550674469207711	-0.01275	3.6793627420053334	0.377968808983225	0.0702	3.626687516400423	0.17344959510313718	0.1076
264	10.578924731182795	3.917722215338864	0.35343009881633136	0.0301	3.862785549469991	0.3544282099226893	0.0301	3.559866436183463	0.27677619528429515	0.129	3.8864700104592216	0.14161600241724087	0.023	3.7349446879790027	0.05599100825074101	0.2179	4.137785242973092	0.04763617570900841	0.1804	4.1149338876272585	0.22546162553097776	-0.0119	3.9363334026281094	0.34997850348888176	0.0301	3.752871774419053	-0.010673325436873547	0.129	4.118879480568913	0.14504215914089438	0.023	4.179171781573726	0.0046087710352583095	0.2179	4.191256158587017	0.017238369614143906	0.1804	4.161354357425012	0.19107256578201415	-0.0119	3.567049584345797	0.6970579781067864	0.0008	3.397162333516877	0.855763796983694	0.0655	3.413645336341225	0.7361827111979199	0.1076	3.5771963561489444	0.6457099822123806	-0.01275	3.562645380980732	0.3452075238874598	0.0702	3.504548244218845	0.08748852832363298	0.1076	3.6131384777328437	0.6686676743056	-0.01275	3.72834111594554	0.416959487070278	0.0702	3.71230834576866	0.2213487391373385	0.1076
265	10.61899641577061	3.903460635993359	0.35101774898631577	0.0301	3.8370505294713477	0.3502332359723279	0.0301	3.5518183613453185	0.265055437401887	0.129	3.885361478905428	0.13350611689836558	0.023	3.755895706100872	0.03802383832463213	0.2179	4.121437407987919	0.030404535601640564	0.1804	4.098641774764087	0.23083679821405007	-0.0119	3.930907225154952	0.3472527686620283	0.0301	3.755444669480626	-0.013354794967475301	0.129	4.122750216801278	0.14756100511269005	0.023	4.170054565718325	0.003923920012722002	0.2179	4.190981965003124	0.01591559075497134	0.1804	4.163021927102366	0.19129912324775325	-0.0119	3.5640680400106195	0.708580065913915	0.0008	3.399334257083608	0.8696446512537176	0.0655	3.4138114854779085	0.7490284694718162	0.1076	3.572325449811828	0.6431120622822182	-0.01275	3.558891057195438	0.3461435540406532	0.0702	3.502996475753882	0.08862302815367036	0.1076	3.616726506459708	0.679005965887009	-0.01275	3.766320732871348	0.4590727240970465	0.0702	3.7786229143406813	0.24596051177990788	0.1076
266	10.659068100358423	3.8931479815424375	0.34734698614425735	0.0301	3.8224569803103394	0.3432662085908561	0.0301	3.5481001910129466	0.263811441556936	0.129	3.885107937348591	0.12667983689912987	0.023	3.787957330049998	0.017588428634086332	0.2179	4.1265611275050595	0.014673745927851043	0.1804	4.094506442992944	0.23008525632204968	-0.0119	3.9310174580891513	0.34351639042612275	0.0301	3.755408599798608	-0.013341591874815373	0.129	4.121769896034281	0.14568847378148425	0.023	4.167252391881185	0.002614994418557583	0.2179	4.190745912788039	0.01412473686821236	0.1804	4.163371041089689	0.18895958766398385	-0.0119	3.55875122235383	0.7155978185929912	0.0008	3.396767599997009	0.879299395626851	0.0655	3.4107362770321874	0.757888805609521	0.1076	3.5689745072170425	0.6298399937339192	-0.01275	3.5564403718409863	0.34293760210272645	0.0702	3.50210709860044	0.08884019881118164	0.1076	3.61756444864335	0.6893313488978483	-0.01275	3.7971453294952777	0.498723412675721	0.0702	3.8285181595296853	0.26754257337712034	0.1076
267	10.699139784946237	3.886444116021181	0.3455409312668981	0.0301	3.815070940882678	0.34012366397348553	0.0301	3.548629752349056	0.2616311255954161	0.129	3.892358565737542	0.1296946289264755	0.023	3.8587169617875094	0.010759562436642995	0.2179	4.145590402724322	0.005075117308592245	0.1804	4.097844625039933	0.22899351730736883	-0.0119	3.93386077693531	0.34307398609946593	0.0301	3.7517621113846102	-0.011988253935653536	0.129	4.118366746610638	0.14214466302014378	0.023	4.173252558175245	0.001808111223147883	0.2179	4.191177279355017	0.010024203811055094	0.1804	4.161269679571175	0.18873556400237845	-0.0119	3.5539526850758913	0.7171149529374347	0.0008	3.392803617762516	0.8841241021634476	0.0655	3.405918214448584	0.7612599104855199	0.1076	3.5659644119666924	0.6146746753112506	-0.01275	3.552948455165002	0.3391049667045511	0.0702	3.501242515241685	0.08861220071136244	0.1076	3.6168353294079765	0.699636373935193	-0.01275	3.821754328464789	0.5324271065932117	0.0702	3.8718186435180724	0.2974935545863139	0.1076
268	10.73921146953405	3.8802211035661505	0.3461994743348841	0.0301	3.8091548401266433	0.3409807179444903	0.0301	3.549610996951313	0.2552416205276271	0.129	3.9042421906808737	0.13492174276057672	0.023	3.9483639927574328	0.012272481435196981	0.2179	4.150897633476705	0.0007586216038177997	0.1804	4.0984237095097775	0.22879103441652193	-0.0119	3.931845197652927	0.34447905947118007	0.0301	3.7489218075983937	-0.009948551141517872	0.129	4.1195421784781034	0.1413527758462666	0.023	4.179130623447126	0.0022975997672231444	0.2179	4.191929729498192	0.006591119166597505	0.1804	4.161024061009108	0.18959613633123612	-0.0119	3.5508753098007775	0.7163389279660769	0.0008	3.3874203666912903	0.8859686001926492	0.0655	3.400558347173756	0.7618501535689088	0.1076	3.562292302574303	0.6083095461749372	-0.01275	3.549365708449932	0.3381068466485514	0.0702	3.4999818374809397	0.08729304579866817	0.1076	3.6163037538010454	0.7068639575459583	-0.01275	3.8382391302164263	0.5608707537442787	0.0702	3.909346291533661	0.3250473073749995	0.1076
